<svg aria-hidden="true" style="position: absolute; width: 0; height: 0; overflow: hidden;" version="1.1" xmlns="http://www.w3.org/2000/svg" xmlns:xlink="http://www.w3.org/1999/xlink">
<defs>
<symbol id="icon-heart" viewBox="0 0 32 32">
<path fill="#343434" d="M16 28.867c-0.413 0-0.813-0.053-1.147-0.173-5.093-1.747-13.187-7.947-13.187-17.107 0-4.667 3.773-8.453 8.413-8.453 2.253 0 4.36 0.88 5.92 2.453 1.56-1.573 3.667-2.453 5.92-2.453 4.64 0 8.413 3.8 8.413 8.453 0 9.173-8.093 15.36-13.187 17.107-0.333 0.12-0.733 0.173-1.147 0.173zM10.080 5.133c-3.533 0-6.413 2.893-6.413 6.453 0 9.107 8.76 14.173 11.84 15.227 0.24 0.080 0.76 0.080 1 0 3.067-1.053 11.84-6.107 11.84-15.227 0-3.56-2.88-6.453-6.413-6.453-2.027 0-3.907 0.947-5.12 2.587-0.373 0.507-1.227 0.507-1.6 0-1.24-1.653-3.107-2.587-5.133-2.587z"></path>
</symbol>
<symbol id="icon-bag" viewBox="0 0 32 32">
<path fill="#343434" d="M6.92 8.507c-0.253 0-0.52-0.107-0.707-0.293-0.387-0.387-0.387-1.027 0-1.413l4.84-4.84c0.387-0.387 1.027-0.387 1.413 0s0.387 1.027 0 1.413l-4.84 4.84c-0.2 0.187-0.453 0.293-0.707 0.293z"></path>
<path fill="#343434" d="M25.080 8.507c-0.253 0-0.507-0.093-0.707-0.293l-4.84-4.84c-0.387-0.387-0.387-1.027 0-1.413s1.027-0.387 1.413 0l4.84 4.84c0.387 0.387 0.387 1.027 0 1.413-0.187 0.187-0.453 0.293-0.707 0.293z"></path>
<path fill="#343434" d="M26.947 14.133c-0.093 0-0.187 0-0.28 0h-21.333c-0.933 0.013-2 0.013-2.773-0.76-0.613-0.6-0.893-1.533-0.893-2.907 0-3.667 2.68-3.667 3.96-3.667h20.747c1.28 0 3.96 0 3.96 3.667 0 1.387-0.28 2.307-0.893 2.907-0.693 0.693-1.627 0.76-2.493 0.76zM5.627 12.133h21.053c0.6 0.013 1.16 0.013 1.347-0.173 0.093-0.093 0.293-0.413 0.293-1.493 0-1.507-0.373-1.667-1.96-1.667h-20.733c-1.587 0-1.96 0.16-1.96 1.667 0 1.080 0.213 1.4 0.293 1.493 0.187 0.173 0.76 0.173 1.347 0.173h0.32z"></path>
<path fill="#343434" d="M13.013 24.4c-0.547 0-1-0.453-1-1v-4.733c0-0.547 0.453-1 1-1s1 0.453 1 1v4.733c0 0.56-0.453 1-1 1z"></path>
<path fill="#343434" d="M19.147 24.4c-0.547 0-1-0.453-1-1v-4.733c0-0.547 0.453-1 1-1s1 0.453 1 1v4.733c0 0.56-0.453 1-1 1z"></path>
<path fill="#343434" d="M19.853 30.333h-8.040c-4.773 0-5.84-2.84-6.253-5.307l-1.88-11.533c-0.093-0.547 0.28-1.053 0.827-1.147s1.053 0.28 1.147 0.827l1.88 11.52c0.387 2.36 1.187 3.64 4.28 3.64h8.040c3.427 0 3.813-1.2 4.253-3.52l2.24-11.667c0.107-0.547 0.627-0.907 1.173-0.787 0.547 0.107 0.893 0.627 0.787 1.173l-2.24 11.667c-0.52 2.707-1.387 5.133-6.213 5.133z"></path>
</symbol>
<symbol id="icon-Vector" viewBox="0 0 32 32">
<path fill="#343434" d="M14.909 29.818c-8.218 0-14.909-6.691-14.909-14.909s6.691-14.909 14.909-14.909c8.218 0 14.909 6.691 14.909 14.909s-6.691 14.909-14.909 14.909zM14.909 2.182c-7.025 0-12.727 5.716-12.727 12.727s5.702 12.727 12.727 12.727c7.025 0 12.727-5.716 12.727-12.727s-5.702-12.727-12.727-12.727z"></path>
<path fill="#343434" d="M30.182 31.273c-0.276 0-0.553-0.102-0.771-0.32l-2.909-2.909c-0.422-0.422-0.422-1.12 0-1.542s1.12-0.422 1.542 0l2.909 2.909c0.422 0.422 0.422 1.12 0 1.542-0.218 0.218-0.495 0.32-0.771 0.32z"></path>
</symbol>
</defs>
</svg>
